<svg width="17" height="16" viewBox="0 0 17 16" fill="none" xmlns="http://www.w3.org/2000/svg">
<path d="M8.64416 13.389C8.49849 13.3124 8.32446 13.3124 8.17879 13.389L4.10942 15.5285C3.7426 15.7214 3.31387 15.4099 3.38393 15.0014L4.16129 10.4698C4.18912 10.3076 4.13534 10.1421 4.0175 10.0272L0.725551 6.81832C0.428779 6.52904 0.592568 6.02503 1.0027 5.96547L5.55189 5.30485C5.71476 5.2812 5.85556 5.17891 5.9284 5.03132L7.96311 0.908508C8.14651 0.536882 8.67644 0.536881 8.85985 0.908507L10.8945 5.03132C10.9674 5.17891 11.1082 5.2812 11.2711 5.30485L15.8202 5.96547C16.2304 6.02503 16.3942 6.52904 16.0974 6.81832L12.8055 10.0272C12.6876 10.1421 12.6338 10.3076 12.6617 10.4698L13.439 15.0014C13.5091 15.4099 13.0804 15.7214 12.7135 15.5285L8.64416 13.389Z" fill="#217AFF"/>
</svg>
