<svg width="18" height="18" viewBox="0 0 18 18" fill="none" xmlns="http://www.w3.org/2000/svg">
<path d="M9.64416 14.389C9.49849 14.3124 9.32446 14.3124 9.17879 14.389L5.10942 16.5285C4.7426 16.7214 4.31387 16.4099 4.38393 16.0014L5.16129 11.4698C5.18912 11.3076 5.13534 11.1421 5.0175 11.0272L1.72555 7.81832C1.42878 7.52904 1.59257 7.02503 2.0027 6.96547L6.55189 6.30485C6.71476 6.2812 6.85556 6.17891 6.9284 6.03132L8.96311 1.90851C9.14651 1.53688 9.67644 1.53688 9.85985 1.90851L11.8945 6.03132C11.9674 6.17891 12.1082 6.2812 12.2711 6.30485L16.8202 6.96547C17.2304 7.02503 17.3942 7.52904 17.0974 7.81832L13.8055 11.0272C13.6876 11.1421 13.6338 11.3076 13.6617 11.4698L14.439 16.0014C14.5091 16.4099 14.0804 16.7214 13.7135 16.5285L9.64416 14.389Z" stroke="#B4B4B8" stroke-width="1.5" stroke-linecap="round" stroke-linejoin="round"/>
</svg>
